Coordinates
version=1
nRows=19
nColumns=27
inDegrees=yes

Units are S.I. units (second, meters, Newtons, ...)
If the header above contains a line with 'inDegrees', this indicates whether rotational values are in degrees (yes) or radians (no).

endheader
time	pelvis_rotation	pelvis_tilt	pelvis_list	pelvis_tx	pelvis_ty	pelvis_tz	hip_flexion_r	hip_adduction_r	hip_rotation_r	knee_angle_r	knee_rotation_r	knee_adduction_r	knee_angle_r_beta	ankle_angle_r	subtalar_angle_r	mtp_angle_r	hip_flexion_l	hip_adduction_l	hip_rotation_l	knee_angle_l	knee_rotation_l	knee_adduction_l	knee_angle_l_beta	ankle_angle_l	subtalar_angle_l	mtp_angle_l
      2.29500000	      3.28135982	    -22.21302866	     -3.39752939	      0.04384389	      0.82922276	     -1.18003144	     37.37059988	    -23.35137798	    -28.96271899	     28.37631259	      0.00000000	      0.49597732	      0.49526008	      0.45437620	      0.00000000	      0.00000000	     45.96169259	    -22.72136859	      3.46171852	     28.98456491	      0.00000000	      5.45542903	      0.50587609	      1.57656180	      0.00000000	      0.00000000
      2.30000000	      2.19039752	    -22.66350713	     -2.34314499	      0.04159854	      0.82822680	     -1.18071807	     39.65076357	    -24.12540572	    -26.01643597	     29.66405938	      0.00000000	     -0.04001981	      0.51773551	      0.79841914	      0.00000000	      0.00000000	     45.84681875	    -22.44971798	      1.22655469	     29.09666582	      0.00000000	      4.96693554	      0.50783262	      1.58265282	      0.00000000	      0.00000000
      2.30500000	      3.08815364	    -23.23189538	     -2.82016615	      0.04057924	      0.82801421	     -1.18099396	     39.66391864	    -24.15047259	    -27.50933824	     29.69211693	      0.00000000	      0.28375683	      0.51822520	      0.53937797	      0.00000000	      0.00000000	     47.34372363	    -22.23675338	      3.22604564	     29.60405118	      0.00000000	      5.45825926	      0.51668817	      1.58032819	      0.00000000	      0.00000000
      2.31000000	      2.83550559	    -23.71757447	     -2.39359533	      0.03881765	      0.82729446	     -1.18150578	     41.01237781	    -24.60851930	    -26.40563931	     30.45982756	      0.00000000	      0.11872491	      0.53162428	      0.59415229	      0.00000000	      0.00000000	     47.88703593	    -21.98383657	      2.78858270	     29.88094514	      0.00000000	      5.43174864	      0.52152088	      1.58097117	      0.00000000	      0.00000000
      2.31500000	      2.50170790	    -24.11997282	     -1.82179526	      0.03710897	      0.82652828	     -1.18214602	     42.41590181	    -25.15672918	    -25.10336859	     31.29172638	      0.00000000	      0.01817725	      0.54614365	      0.69775534	      0.00000000	      0.00000000	     48.22190468	    -21.68076092	      2.09029422	     30.10458717	      0.00000000	      5.36900135	      0.52542417	      1.57908174	      0.00000000	      0.00000000
      2.32000000	      2.12522027	    -24.62277408	     -1.37188049	      0.03515802	      0.82567262	     -1.18260129	     43.94115778	    -25.53173193	    -23.71194616	     32.09843413	      0.00000000	     -0.19518012	      0.56022336	      0.71038385	      0.00000000	      0.00000000	     48.75564165	    -21.49798836	      1.47613897	     30.41643051	      0.00000000	      5.29084057	      0.53086686	      1.58802584	      0.00000000	      0.00000000
      2.32500000	      2.13537984	    -24.96662381	     -1.12409454	      0.03380453	      0.82497347	     -1.18307807	     44.83171797	    -25.88480306	    -23.21898000	     32.67842369	      0.00000000	     -0.15289685	      0.57034609	      0.68968095	      0.00000000	      0.00000000	     49.33578680	    -21.29475390	      1.38921744	     30.75805249	      0.00000000	      5.19854500	      0.53682929	      1.62201354	      0.00000000	      0.00000000
      2.33000000	      2.30019269	    -25.97934891	     -0.81675407	      0.03105757	      0.82366999	     -1.18369906	     46.65692033	    -26.39055468	    -22.46857141	     33.60832025	      0.00000000	     -0.36580146	      0.58657584	      0.69687344	      0.00000000	      0.00000000	     50.92995213	    -20.88258517	      1.87258391	     31.42787494	      0.00000000	      5.42824248	      0.54851989	      1.66431282	      0.00000000	      0.00000000
      2.33500000	      1.66377239	    -25.62959123	     -0.36152293	      0.03072172	      0.82324202	     -1.18393291	     47.18346304	    -26.55612185	    -21.14894375	     34.08112038	      0.00000000	     -0.24054611	      0.59482776	      0.71392471	      0.00000000	      0.00000000	     50.16925730	    -20.98013296	      0.38858208	     31.39496443	      0.00000000	      4.90508980	      0.54794550	      1.68961046	      0.00000000	      0.00000000
      2.34000000	      1.73188159	    -25.85112810	     -0.22847305	      0.02962170	      0.82245183	     -1.18424701	     47.82805261	    -26.81682929	    -20.89092749	     34.58381014	      0.00000000	     -0.10273480	      0.60360135	      0.70543794	      0.00000000	      0.00000000	     50.70987031	    -20.87819662	      0.35809029	     31.79314120	      0.00000000	      4.69937917	      0.55489499	      1.75444223	      0.00000000	      0.00000000
      2.34500000	      1.75336488	    -26.03777014	     -0.05622225	      0.02852222	      0.82158743	     -1.18454399	     48.50324862	    -27.09115427	    -20.53811490	     35.12360580	      0.00000000	      0.04739995	      0.61302257	      0.71771455	      0.00000000	      0.00000000	     51.17531989	    -20.77898187	      0.23697516	     32.18210902	      0.00000000	      4.48403737	      0.56168376	      1.82270511	      0.00000000	      0.00000000
      2.35000000	      1.77056364	    -26.22188761	      0.07696150	      0.02742755	      0.82066844	     -1.18475807	     49.16454047	    -27.33102472	    -20.20983089	     35.66389397	      0.00000000	      0.21770846	      0.62245237	      0.72818931	      0.00000000	      0.00000000	     51.65827604	    -20.71332457	      0.15902014	     32.58482317	      0.00000000	      4.27764947	      0.56871245	      1.88928870	      0.00000000	      0.00000000
      2.35500000	      1.27287604	    -26.28176032	      0.65159260	      0.02618076	      0.81953412	     -1.18512308	     50.36912298	    -27.64940317	    -18.68957687	     36.45824305	      0.00000000	      0.20717416	      0.63631638	      0.78339651	      0.00000000	      0.00000000	     51.57964696	    -20.65235840	     -1.04623930	     32.86854396	      0.00000000	      3.86687453	      0.57366431	      1.97653824	      0.00000000	      0.00000000
      2.36000000	      1.20100569	    -26.65376873	      0.94245066	      0.02451451	      0.81826264	     -1.18538484	     51.53623707	    -27.94713292	    -17.91995399	     37.21881800	      0.00000000	      0.29347196	      0.64959092	      0.87303947	      0.00000000	      0.00000000	     52.24429690	    -20.51513603	     -1.21072372	     33.34494133	      0.00000000	      3.76109244	      0.58197902	      2.03893695	      0.00000000	      0.00000000
      2.36500000	      1.38125828	    -26.33407116	      0.90703061	      0.02456795	      0.81751729	     -1.18547991	     51.25669584	    -28.16955043	    -18.33902881	     37.48300786	      0.00000000	      0.72987806	      0.65420190	      0.85972573	      0.00000000	      0.00000000	     52.24265270	    -20.57443439	     -1.32663867	     33.70575336	      0.00000000	      3.24219844	      0.58827637	      2.18503831	      0.00000000	      0.00000000
      2.37000000	      1.66313533	    -26.37116372	      0.78230878	      0.02389579	      0.81652906	     -1.18548763	     51.37961606	    -28.37125452	    -18.78464545	     37.88553628	      0.00000000	      1.09225185	      0.66122735	      0.88540017	      0.00000000	      0.00000000	     52.80767757	    -20.58491972	     -0.94506036	     34.19886164	      0.00000000	      2.98639796	      0.59688274	      2.30273237	      0.00000000	      0.00000000
      2.37500000	      2.02672286	    -27.01038716	      1.00172887	      0.02184104	      0.81485591	     -1.18587382	     52.62545125	    -28.87884249	    -18.54554281	     38.72145715	      0.00000000	      1.15922301	      0.67581692	      0.88882536	      0.00000000	      0.00000000	     54.12392385	    -20.23029770	     -0.34891696	     34.91635231	      0.00000000	      3.06645809	      0.60940531	      2.39735698	      0.00000000	      0.00000000
      2.38000000	      1.92022160	    -26.20461989	      0.89402751	      0.02275432	      0.81438453	     -1.18565712	     51.77394078	    -28.88693611	    -18.90434381	     38.79773722	      0.00000000	      1.75931566	      0.67714826	      1.05867261	      0.00000000	      0.00000000	     53.34902164	    -20.56946369	     -1.04130267	     35.06330355	      0.00000000	      2.28051648	      0.61197009	      2.54003222	      0.00000000	      0.00000000
      2.38500000	      1.52565881	    -26.06470678	      1.36123119	      0.02193591	      0.81312237	     -1.18585867	     52.59973870	    -29.16023438	    -17.77239874	     39.49215309	      0.00000000	      1.91994225	      0.68926810	      1.11644786	      0.00000000	      0.00000000	     53.12447961	    -20.60563858	     -2.15909527	     35.36232064	      0.00000000	      1.76193492	      0.61718893	      2.67822614	      0.00000000	      0.00000000
